<?xml version="1.0" encoding="utf-8"?>
<svg viewBox="0 0 500 500" xmlns="http://www.w3.org/2000/svg">
  <rect style="fill: rgb(255, 255, 255);" x="0" y="0" width="500" height="500" rx="100" ry="100"/>
  <line style="stroke-width: 21px; stroke-linecap: round; stroke-dashoffset: 10px; stroke-dasharray: 10, 50, 20, 40; stroke: rgb(10, 88, 202);" x1="23.059" y1="82.2" x2="296" y2="83.64"/>
  <line style="stroke: rgb(0, 0, 0); stroke-width: 21px; stroke-linecap: round; stroke-dashoffset: 10px; stroke-dasharray: 5, 50, 30, 40;" x1="18" y1="190.4" x2="265" y2="191.9"/>
  <line style="stroke-width: 21px; stroke-linecap: round; stroke-dashoffset: 10px; stroke-dasharray: 10, 50, 20, 40, 11, 60; stroke: rgb(10, 88, 202);" x1="2.059" y1="298.7" x2="265" y2="300.159"/>
  <line style="stroke-width: 21px; stroke-linecap: round; stroke-dashoffset: 10px; stroke-dasharray: 10, 60, 10, 40, 20, 50; stroke: rgb(10, 88, 202);" x1="3.059" y1="406.9" x2="281" y2="408.419"/>
  <path style="fill: none; stroke-linejoin: round; stroke-linecap: round; stroke-width: 6px; stroke: rgb(161, 159, 159);" d="M 318.318 236.042 L 34 236.042 C 25.163 236.042 18 228.879 18 220.042 L 18 162.257 C 18 153.42 25.163 146.257 34 146.257 M 318.318 39.057 L 318.318 146.257 M 34 146.257 L 318.318 146.257 M 318.318 236.042 L 318.318 455.091"/>
  <line style="stroke: rgb(0, 0, 0); stroke-linecap: round; stroke-dasharray: 10, 30, 5, 30, 15, 30; stroke-width: 18px;" x1="347.784" y1="72.2" x2="479.656" y2="72.2"/>
  <line style="stroke: rgb(0, 0, 0); stroke-width: 11px; stroke-linecap: round; stroke-dasharray: 25, 40, 5;" x1="347.784" y1="114.822" x2="479.656" y2="114.822"/>
  <line style="stroke: rgb(0, 0, 0); stroke-width: 11px; stroke-linecap: round; stroke-dasharray: 15, 40, 10, 40;" x1="347.784" y1="147.444" x2="479.656" y2="147.444"/>
  <line style="stroke: rgb(0, 0, 0); stroke-width: 11px; stroke-linecap: round; stroke-dasharray: 5, 34;" x1="347.784" y1="180.066" x2="479.656" y2="180.066"/>
  <line style="stroke: rgb(0, 0, 0); stroke-width: 11px; stroke-linecap: round; stroke-dasharray: 5, 34, 15, 20;" x1="347.784" y1="212.688" x2="479.656" y2="212.688"/>
  <line style="stroke: rgb(0, 0, 0); stroke-width: 11px; stroke-linecap: round; stroke-dasharray: 5, 34, 5, 30;" x1="347.784" y1="245.31" x2="479.656" y2="245.31"/>
  <line style="stroke: rgb(0, 0, 0); stroke-width: 11px; stroke-linecap: round; stroke-dasharray: 5, 34, 33, 43;" x1="347.784" y1="277.931" x2="479.656" y2="277.931"/>
  <line style="stroke: rgb(0, 0, 0); stroke-width: 11px; stroke-linecap: round; stroke-dasharray: 5, 34, 2, 43;" x1="347.784" y1="310.553" x2="479.656" y2="310.553"/>
  <line style="stroke: rgb(0, 0, 0); stroke-width: 11px; stroke-linecap: round; stroke-dasharray: 15, 30, 22, 22, 2;" x1="347.784" y1="343.175" x2="479.656" y2="343.175"/>
  <line style="stroke: rgb(0, 0, 0); stroke-width: 11px; stroke-linecap: round; stroke-dasharray: 5, 34, 43, 23;" x1="347.784" y1="375.797" x2="479.656" y2="375.797"/>
  <line style="stroke: rgb(0, 0, 0); stroke-width: 11px; stroke-linecap: round; stroke-dasharray: 5, 34, 34, 40;" x1="347.784" y1="408.419" x2="479.656" y2="408.419"/>
</svg>